<?xml version="1.0" encoding="UTF-8"?>
<svg width="38px" height="38px" viewBox="0 0 38 38" version="1.1" xmlns="http://www.w3.org/2000/svg" xmlns:xlink="http://www.w3.org/1999/xlink">
    <!-- Generator: Sketch 57.1 (83088) - https://sketch.com -->
    <title>ФБ</title>
    <desc>Created with Sketch.</desc>
    <g id="Pages" stroke="none" stroke-width="1" fill="none" fill-rule="evenodd">
        <g id="Catalog" transform="translate(-126.000000, -1579.000000)" fill="#FFFFFF">
            <g id="Подвал" transform="translate(26.000000, 1540.000000)">
                <g id="Соцсети" transform="translate(0.000000, 38.000000)">
                    <g id="ФБ" transform="translate(99.000000, 0.000000)">
                        <path d="M19.92536,1.23696 C30.20864,1.23696 38.54488,9.57336 38.54488,19.85672 C38.54488,30.14 30.20864,38.47596 19.92536,38.47596 C9.64204,38.47596 1.3058,30.14 1.3058,19.85672 C1.3058,9.57336 9.64204,1.23696 19.92536,1.23696 Z M19.8648,4.22772 C11.19848,4.22772 4.17308,11.25308 4.17308,19.91932 C4.17308,28.5856 11.19848,35.6112 19.8648,35.6112 C28.53108,35.6112 35.55648,28.5856 35.55648,19.91932 C35.55648,11.25308 28.53108,4.22772 19.8648,4.22772 Z" id="Combined-shape-1710" opacity="0.5"></path>
                        <g id="fb" transform="translate(4.000000, 4.000000)" opacity="0.8">
                            <g id="Shape">
                                <path d="M16,0 C7.164,0 0,7.163 0,16 C0,24.837 7.164,32 16,32 C24.837,32 32,24.836 32,16 C32,7.164 24.837,0 16,0 Z M20.062,9.455 L17.041,9.455 L17.041,12.899 L20.062,12.899 L20.062,16.344 L17.041,16.344 L17.041,24.954 L14.02,24.954 L14.02,16.344 L11,16.344 L11,12.899 L14.021,12.899 L14.021,9.455 C14.021,7.553 15.374,6.01 17.042,6.01 L20.063,6.01 L20.063,9.455 L20.062,9.455 Z" fill-rule="nonzero"></path>
                            </g>
                        </g>
                    </g>
                </g>
            </g>
        </g>
    </g>
</svg>