<?xml version="1.0" encoding="UTF-8"?>
<svg width="38px" height="38px" viewBox="0 0 38 38" version="1.1" xmlns="http://www.w3.org/2000/svg" xmlns:xlink="http://www.w3.org/1999/xlink">
    <!-- Generator: Sketch 57.1 (83088) - https://sketch.com -->
    <title>Инста</title>
    <desc>Created with Sketch.</desc>
    <g id="Pages" stroke="none" stroke-width="1" fill="none" fill-rule="evenodd">
        <g id="Catalog" transform="translate(-77.000000, -1579.000000)" fill="#FFFFFF">
            <g id="Подвал" transform="translate(26.000000, 1540.000000)">
                <g id="Соцсети" transform="translate(0.000000, 38.000000)">
                    <g id="Инста" transform="translate(50.000000, 0.000000)">
                        <path d="M19.9254,1.23696 C30.20864,1.23696 38.54484,9.57336 38.54484,19.85672 C38.54484,30.14 30.20864,38.47596 19.9254,38.47596 C9.64208,38.47596 1.3058,30.14 1.3058,19.85672 C1.3058,9.57336 9.64208,1.23696 19.9254,1.23696 Z M19.86476,4.22772 C11.19856,4.22772 4.17316,11.25308 4.17316,19.91932 C4.17316,28.5856 11.19856,35.6112 19.86476,35.6112 C28.53104,35.6112 35.55648,28.5856 35.55648,19.91932 C35.55648,11.25308 28.53104,4.22772 19.86476,4.22772 Z" id="Combined-shape-1714" opacity="0.5"></path>
                        <g id="instagram" transform="translate(4.000000, 4.000000)" opacity="0.8">
                            <g id="Shape">
                                <path d="M20.916,16 C20.916,18.7274582 18.7049582,20.9385 15.9775,20.9385 C13.2500418,20.9385 11.039,18.7274582 11.039,16 C11.039,15.606 11.09,15.227 11.177,14.86 L10.28,14.86 L10.28,21.698 L21.676,21.698 L21.676,14.86 L20.779,14.86 C20.865,15.227 20.916,15.606 20.916,16 L20.916,16 Z" fill-rule="nonzero"></path>
                                <path d="M15.978,18.659 C17.444,18.659 18.637,17.466 18.637,16 C18.637,14.534 17.444,13.341 15.978,13.341 C14.512,13.341 13.319,14.534 13.319,16 C13.319,17.466 14.511,18.659 15.978,18.659 L15.978,18.659 Z M18.637,10.302 L21.676,10.302 L21.676,13.341 L18.637,13.341 L18.637,10.302 Z" fill-rule="nonzero"></path>
                                <path d="M16,0 C7.164,0 0,7.164 0,16 C0,24.837 7.164,32 16,32 C24.837,32 32,24.837 32,16 C32,7.164 24.837,0 16,0 Z M23.955,21.698 C23.9517029,22.9552887 22.9332887,23.9737029 21.676,23.977 L10.279,23.977 C9.02171129,23.9737029 8.0032971,22.9552887 8,21.698 L8,10.302 C8.00384341,9.04493849 9.02193849,8.02684341 10.279,8.023 L21.675,8.023 C22.9320615,8.02684341 23.9501566,9.04493849 23.954,10.302 L23.954,21.698 L23.955,21.698 Z" fill-rule="nonzero"></path>
                            </g>
                        </g>
                    </g>
                </g>
            </g>
        </g>
    </g>
</svg>