<?xml version="1.0" encoding="UTF-8"?>
<svg width="17px" height="17px" viewBox="0 0 17 17" version="1.1" xmlns="http://www.w3.org/2000/svg" xmlns:xlink="http://www.w3.org/1999/xlink">
    <!-- Generator: Sketch 57.1 (83088) - https://sketch.com -->
    <title>loupe-dark</title>
    <desc>Created with Sketch.</desc>
    <g id="Styleguide" stroke="none" stroke-width="1" fill="none" fill-rule="evenodd">
        <g transform="translate(-367.000000, -719.000000)" fill="#323232" fill-rule="nonzero" id="Шапка.Поиск-Вход-Корзина">
            <g transform="translate(49.000000, 658.000000)">
                <g id="Главные-иконки">
                    <g id="Поиск-наведение" transform="translate(0.000000, 52.000000)">
                        <g id="Поиск">
                            <g transform="translate(309.000000, 0.000000)" id="loupe-dark">
                                <g transform="translate(8.000000, 8.000000)">
                                    <path d="M17.958,16.527 L12.75,11.32 C13.5625824,10.2121429 14.0004848,8.87391313 14,7.5 C14,3.91014913 11.0898509,1 7.5,1 C3.91014913,1 1,3.91014913 1,7.5 C1,11.0898509 3.91014913,14 7.5,14 C8.8817553,14.0000696 10.2271839,13.5574344 11.339,12.737 L16.544,17.941 L17.958,16.527 Z M7.5,12 C5.019,12 3,9.981 3,7.5 C3,5.019 5.019,3 7.5,3 C9.981,3 12,5.019 12,7.5 C12,9.981 9.981,12 7.5,12 Z" id="Shape"></path>
                                </g>
                            </g>
                        </g>
                    </g>
                </g>
            </g>
        </g>
    </g>
</svg>