<?xml version="1.0" encoding="UTF-8"?>
<svg width="38px" height="38px" viewBox="0 0 38 38" version="1.1" xmlns="http://www.w3.org/2000/svg" xmlns:xlink="http://www.w3.org/1999/xlink">
    <!-- Generator: Sketch 57.1 (83088) - https://sketch.com -->
    <title>ВК</title>
    <desc>Created with Sketch.</desc>
    <g id="Pages" stroke="none" stroke-width="1" fill="none" fill-rule="evenodd">
        <g id="Catalog" transform="translate(-175.000000, -1579.000000)" fill="#FFFFFF">
            <g id="Подвал" transform="translate(26.000000, 1540.000000)">
                <g id="Соцсети" transform="translate(0.000000, 38.000000)">
                    <g id="ВК" transform="translate(148.000000, 0.000000)">
                        <path d="M19.9254,1.23696 C30.20868,1.23696 38.54488,9.57336 38.54488,19.85672 C38.54488,30.14 30.20868,38.47596 19.9254,38.47596 C9.64204,38.47596 1.3058,30.14 1.3058,19.85672 C1.3058,9.57336 9.64204,1.23696 19.9254,1.23696 Z M19.86476,4.22772 C11.19844,4.22772 4.173,11.25308 4.173,19.91932 C4.173,28.5856 11.19844,35.6112 19.86476,35.6112 C28.531,35.6112 35.55644,28.5856 35.55644,19.91932 C35.55644,11.25308 28.531,4.22772 19.86476,4.22772 Z" id="Combined-shape-1706" opacity="0.5"></path>
                        <g id="vk" transform="translate(4.000000, 4.000000)" opacity="0.8">
                            <g id="Shape">
                                <path d="M16.637,14.495 C17.039,14.476 17.356,14.413 17.588,14.307 C17.914,14.162 18.128,13.977 18.229,13.748 C18.33,13.519 18.379,13.252 18.379,12.951 C18.379,12.719 18.321,12.486 18.205,12.254 C18.089,12.022 17.883,11.849 17.588,11.737 C17.324,11.637 16.996,11.582 16.604,11.572 C16.0534001,11.5613672 15.5027011,11.5567003 14.952,11.558 L14.613,11.558 L14.613,14.523 L15.178,14.523 C15.749,14.523 16.235,14.514 16.637,14.495 L16.637,14.495 Z M18.118,17.084 C17.836,17.003 17.446,16.959 16.952,16.952 C16.4353562,16.945871 15.9186801,16.9428709 15.402,16.942996 L14.612,16.942996 L14.612,20.436 L14.876,20.436 C15.89,20.436 16.616,20.433 17.056,20.427 C17.4720863,20.4249074 17.8837707,20.3416873 18.268,20.182 C18.645,20.025 18.901,19.818 19.042,19.557 C19.183,19.296 19.256,18.995 19.256,18.657 C19.256,18.211 19.168,17.869 18.995,17.627 C18.825,17.386 18.531,17.204 18.118,17.084 L18.118,17.084 Z" fill-rule="nonzero"></path>
                                <path d="M16,0 C7.164,0 0,7.164 0,16 C0,24.837 7.164,32 16,32 C24.837,32 32,24.837 32,16 C32,7.164 24.837,0 16,0 Z M22.602,20.531 C22.3371225,21.055716 21.951989,21.5104064 21.478,21.858 C20.926,22.273 20.317,22.568 19.655,22.744 C18.993,22.92 18.154,23.008 17.136,23.008 L11.015,23.008 L11.015,8.987 L16.458,8.987 C17.588,8.987 18.415,9.025 18.938,9.1 C19.4817846,9.18185663 20.0088548,9.35068119 20.499,9.6 C21.032,9.87 21.428,10.232 21.688,10.687 C21.948,11.142 22.08,11.662 22.08,12.245 C22.08,12.923 21.901,13.523 21.544,14.04 C21.186,14.558 20.681,14.96 20.027,15.248 L20.027,15.323 C20.944,15.505 21.669,15.882 22.206,16.453 C22.743,17.024 23.013,17.778 23.013,18.714 C23.013,19.392 22.875,19.997 22.602,20.531 L22.602,20.531 Z" fill-rule="nonzero"></path>
                            </g>
                        </g>
                    </g>
                </g>
            </g>
        </g>
    </g>
</svg>